<svg
   xmlns="http://www.w3.org/2000/svg"
   viewBox="0 0 580.53 198.055">
  <g>
    <g
       transform="matrix(8.8125245,0,0,8.8125216,5.2662572,2.7902132)">
      <path
         d="m 21.876689,10.92052 c 0,2.222503 -0.659007,4.39505 -1.893764,6.243049 -1.234758,1.847896 -2.989794,3.288191 -5.043126,4.13874 -2.053332,0.850447 -4.312712,1.073045 -6.4925012,0.639394 C 6.2675073,21.508153 4.2652432,20.437968 2.6936987,18.866404 1.1221542,17.294839 0.05192373,15.292585 -0.38166333,13.112784 -0.81525038,10.932983 -0.59272235,8.6735722 0.25779015,6.6202506 1.1083018,4.5669291 2.5485966,2.8119331 4.3965338,1.5771759 6.2444814,0.34242575 8.4170596,-0.31661917 10.63955,-0.31661917 c 2.980294,0 5.838511,1.18391431 7.945883,3.29128657 2.107372,2.1073721 3.291256,4.9655793 3.291256,7.9458526 z M 12.519013,5.6390645 V 11.288486 L 8.5859742,5.6390645 H 5.3580958 V 16.216073 h 3.3992346 v -5.666377 l 3.9329976,5.65228 h 3.239156 V 5.6390645 Z"
         fill="#00de5a" />
    </g>
    <g
       transform="matrix(9.0523928,0,0,9.0523897,244.47724,-0.12204022)">
      <path
         d="m 34.545082,5.239909 -3.052327,6.955083 -3.452767,-6.955083 h -2.6548 l 4.889888,9.649335 -2.015745,4.521473 h 2.578005 L 37.123088,5.2536217 Z M 23.688569,15.994892 h -2.523094 v -1.004158 c -0.917827,0.804491 -2.100973,1.240466 -3.321161,1.223702 -3.016791,0 -5.378063,-2.469288 -5.378063,-5.597005 0,-3.1277479 2.358562,-5.5970154 5.378063,-5.5970154 1.219787,-0.017557 2.402933,0.4173837 3.321161,1.2209111 V 5.239909 h 2.523094 z m -2.226956,-5.363809 c 0,-2.0275 -1.415037,-3.5666638 -3.290945,-3.5666638 -1.875908,0 -3.291045,1.5391638 -3.291045,3.5666638 0,2.027591 1.412427,3.566705 3.291045,3.566705 1.878618,0 3.290945,-1.552867 3.290945,-3.566705 z M -0.01139555,19.410717 H 2.6214047 v -4.329435 c 0.9008111,0.749379 2.0400483,1.151324 3.2114692,1.133154 3.016741,0 5.3807641,-2.469288 5.3807641,-5.597005 0,-3.1277479 -2.3612826,-5.5970154 -5.3807641,-5.5970154 C 4.6098247,4.9984412 3.4225931,5.433814 2.5034816,6.2413267 V 5.239909 H -0.0196227 Z M 5.5202226,7.0644192 c 1.8758675,0 3.2909948,1.5391638 3.2909948,3.5666638 0,2.027591 -1.4151273,3.566705 -3.2909948,3.566705 -1.8758675,0 -3.2909947,-1.539114 -3.2909947,-3.566705 0,-2.0275 1.398674,-3.5666638 3.2909947,-3.5666638 z"
         fill="#00de5a" />
    </g>
  </g>
</svg>
